# xmcd
# 
# Track frame offsets:
#     150
#     14519
#     27227
#     40503
#     57096
#     71910
#     82224
#     94493
#     109294
#     120555
#     131734
#     143286
#     154511
#     164476
#     179441
#     190275
#     204637
#     219331
#     230263
#     243312
#     253497
#     264419
#     275935
#     292620
#     304096
#     314803
# 
# Disc length: 4394
# 
# Revision: 1
# Processed by: cddbd v1.5.2PL0 Copyright (c) Steve Scherf et al.
# Submitted via: fre:ac v1.0.31
# 
DISCID=8711281a
DTITLE=Various Artist - A Touch Of Country - CD 1
DYEAR=0
DGENRE=Country
TTITLE0=John Denver - Take Me Home, Country Roads
TTITLE1=The Bellamy Brothers - Let Your Love Flow
TTITLE2=Crystal Gayle - Talkin'in Your Sleep
TTITLE3=Dr. Hook ft. Ray Sawyer - When You're In Love With A Beautiful Woman
TTITLE4=Jeannie C Riley - Harper Valley Pta
TTITLE5=George Hamilton IV - Abilene
TTITLE6=Freddy Fender - Before The Next Teardrop Falls
TTITLE7=Gail Davies - Someone Is Looking For Someone Like You
TTITLE8=Roger Miller - King Of The Road
TTITLE9=Conway Twitty - It's Only Make Believe
TTITLE10=The Kendalls - Heaven's Just A Sin Away
TTITLE11=Stella Parton - Danger Of A Stranger
TTITLE12=Johnny Cash - Ballad Of A Teenage Queen
TTITLE13=Billie Jo Spears - Crystal Chandeliers
TTITLE14=Boxcar Willie - Louisiana Saterday Night
TTITLE15=Bobby Bare - All American Boy
TTITLE16=Don Gibson - I Can't Stop Loving You
TTITLE17=Janie Fricke - She's Single Again
TTITLE18=Johnny Paycheck - Take This Job And Shove It
TTITLE19=Floyd Cramer - On The Rebound
TTITLE20=Patsy Cline - I Cried All The Way To The Altar
TTITLE21=Lynn Anderson - Listen To A Country Song
TTITLE22=Charlie Rich - Big Boss Man
TTITLE23=Skeeter Davis - Gonna Get Along Without You Now
TTITLE24=Hank Thompson - Honky Tonk Girl
TTITLE25=Tony Orlando/Dawn - Tie A Yellow Ribbon 'round The Ole Oak Tree
EXTD=
EXTT0=
EXTT1=
EXTT2=
EXTT3=
EXTT4=
EXTT5=
EXTT6=
EXTT7=
EXTT8=
EXTT9=
EXTT10=
EXTT11=
EXTT12=
EXTT13=
EXTT14=
EXTT15=
EXTT16=
EXTT17=
EXTT18=
EXTT19=
EXTT20=
EXTT21=
EXTT22=
EXTT23=
EXTT24=
EXTT25=
PLAYORDER=
